<svg viewBox="0 0 256 256" fill="none" xmlns="http://www.w3.org/2000/svg">
  <path d="M48.514 15.36c.843.282 1.416.495 2.15.932l.555.327.593.354 1.279.754.666.393c1.062.625 2.131 1.24 3.2 1.856l1.29.744.648.373 3.206 1.849 1.28.738 28.16 16.246.64.37 1.28.738 3.214 1.853.656.378q.597.346 1.195.688a30 30 0 0 1 1.16.704c.636.377 1.263.583 1.97.795 1.391.493 2.767 1.1 3.572 2.4.98 2.605.561 5.868.479 8.591-.03 1.146-.033 2.292-.038 3.438a440 440 0 0 1-.101 6.5 630 630 0 0 0-.103 7.406c-.049 5.075-.132 10.149-.237 15.223l.567.185a6.2 6.2 0 0 1 1.316.595l.382.228.405.247.899.537.475.284c.816.483 1.642.95 2.466 1.419a444 444 0 0 1 4.456 2.572 928 928 0 0 0 6.299 3.651q1.235.71 2.46 1.437l.576.338q.534.314 1.066.634l.477.279.414.246c.493.188.686.139 1.175-.049q.483-.242.95-.51l.56-.318.595-.342.617-.351a291 291 0 0 0 3.904-2.272c1.1-.65 2.208-1.286 3.319-1.918a278 278 0 0 0 4.071-2.361 414 414 0 0 1 4.676-2.707l.632-.364.561-.321.595-.352.397-.191c.442-.232.808-.458 1.179-.793.155-.638.194-1.02.165-1.655l-.004-.504c-.005-.557-.022-1.113-.039-1.67q-.01-.599-.017-1.197-.017-1.29-.047-2.58a309 309 0 0 1-.055-4.084 978 978 0 0 0-.16-11.616 371 371 0 0 1-.08-6.415 128 128 0 0 0-.054-3.392c-.208-6.867-.208-6.867.94-8.484 1.088-.98 2.282-1.486 3.668-1.913.981-.336 1.83-.874 2.71-1.413q.505-.29 1.012-.577l.505-.288 1.601-.91c1.702-.967 3.39-1.945 5.051-2.98a45 45 0 0 1 2.163-1.218c1.882-1.02 3.725-2.115 5.577-3.19q1.784-1.031 3.575-2.05a310 310 0 0 0 4.217-2.448c1.062-.627 2.13-1.24 3.202-1.85.999-.569 1.992-1.147 2.986-1.724a444 444 0 0 1 3.09-1.772 128 128 0 0 0 4.531-2.684 45 45 0 0 1 2.164-1.218c1.75-.948 3.465-1.964 5.188-2.962l1.871-1.083.432-.25 1.168-.673.666-.384c.491-.269.491-.269.688-.269.043 12.8.084 25.601.108 38.402l.001.574a25409 25409 0 0 1 .032 19.01q.017 9.769.054 19.538.037 10.036.045 20.073l.002 2.834.001.564q.006 4.492.03 8.986.023 4.514.017 9.029-.004 2.684.019 5.367.014 1.792.002 3.584c-.003.681-.003 1.362.008 2.043.055 3.942.055 3.942-.565 4.857-.674.643-1.438.913-2.314 1.213q-.645.358-1.277.739l-1.32.75-1.46.831-.37.211a709 709 0 0 0-3.672 2.109l-.635.367-1.9 1.098-2.536 1.464-.633.366q-2.227 1.283-4.461 2.557a342 342 0 0 0-5.083 2.94 368 368 0 0 1-4.467 2.591 110 110 0 0 0-3.04 1.794l-.515.313a50 50 0 0 0-.934.583l-.42.254-.358.224c-.776.21-1.441-.216-2.123-.568l-.559-.327-.631-.367-.665-.39-.685-.398a201 201 0 0 1-3.169-1.874l-.513-.307a63 63 0 0 1-.937-.572l-.423-.252-.36-.222c-.526-.182-.83-.093-1.359.068-.513.245-.513.245-1.036.561l-.611.356-.655.387-.686.402q-.714.416-1.425.834c-1.086.636-2.177 1.263-3.267 1.891l-1.278.737-2.576 1.485a1109 1109 0 0 0-6.164 3.574c-1.709 1-3.425 1.986-5.145 2.967a648 648 0 0 0-5.366 3.089l-.579.336-.544.318-.514.299c-.58.35-1.138.729-1.689 1.122-.521.217-.818.118-1.351-.044-.453-.214-.453-.214-.921-.483l-.536-.305-.574-.332-.605-.347a691 691 0 0 1-5.405-3.141 588 588 0 0 0-3.775-2.186 854 854 0 0 1-4.898-2.843 588 588 0 0 0-5.815-3.35 1103 1103 0 0 1-5.459-3.135l-.59-.341-.575-.329a59 59 0 0 1-1.227-.739l-.636-.389-.572-.357c-.477-.267-.477-.267-.902-.21-.525.229-1.019.49-1.519.769l-.668.372-.708.398-.72.403c-3.065 1.697-3.065 1.697-6.037 3.548-.784-.066-1.349-.364-2.02-.759l-.61-.356-.656-.387-.686-.401-1.426-.834c-1.085-.637-2.176-1.263-3.266-1.891l-1.28-.738-.64-.37-26.24-15.138z" fill="url(#a)"/>
  <path d="m58.754 33.083 1.018.555.573.312q1.345.738 2.68 1.496l.588.332c1.605.91 3.199 1.839 4.79 2.771q2.052 1.198 4.123 2.362c1.412.794 2.817 1.599 4.21 2.424 1.913 1.132 3.842 2.236 5.768 3.344l3.86 2.227a1998 1998 0 0 0 5.35 3.08l.605.348.526.302.567.336.394.19c1.092.572 1.092.572 1.327 1.156.054.446.057.87.044 1.32l.004.512c.003.566-.006 1.13-.014 1.697v1.217q-.001 1.651-.02 3.303c-.01 1.151-.01 2.302-.012 3.453q-.009 3.27-.034 6.538-.024 3.722-.034 7.444a4202 4202 0 0 1-.08 15.312l.562.181a8 8 0 0 1 1.576.743l.548.324.589.352 1.278.754.674.397c1.124.66 2.257 1.305 3.389 1.95l.696.397 2.11 1.203 2.806 1.6.349.199a546 546 0 0 1 5.289 3.063 326 326 0 0 0 3.67 2.115l1.851 1.05.672.382.597.337.52.313.42.249c.368.342.368.342.47.82l.005.579.011.665-.001.73.009.769q.011 1.044.012 2.088l.006 1.305q.012 2.278.013 4.555.001 2.122.025 4.243.018 1.823.017 3.645 0 1.088.012 2.176c.011.81.007 1.619.003 2.428l.015.727c-.026 1.589-.026 1.589-.617 2.208-.45.305-.892.547-1.384.776l-.6.356-.533.293-.603.335-.628.345a167 167 0 0 0-4.221 2.4 380 380 0 0 1-4.135 2.412l-.661.381-1.342.773-3.228 1.862-1.28.738-.64.369-7.681 4.432-1.272.734-2.968 1.711-1.043.6q-.651.377-1.303.75l-.6.347q-.285.161-.577.33-.56.329-1.106.682l-.521.334-.455.302c-.579.249-.833.19-1.428-.006a19 19 0 0 1-1.122-.605l-.665-.383-.711-.415-.743-.429-1.528-.886q-1.349-.784-2.702-1.561l-2.53-1.46-2.552-1.473-1.92-1.107-2.575-1.485-.655-.378-1.195-.688a26 26 0 0 1-1.16-.709c-.638-.378-1.252-.559-1.968-.746-1.438-.465-2.79-1.087-3.574-2.444-1.044-2.968-.607-6.622-.549-9.71.021-1.221.015-2.442.011-3.663-.006-2.496.01-4.992.038-7.488a799 799 0 0 0 .053-7.875l.004-2.344c.01-5.527.042-11.053.086-16.58q.066-8.052.097-16.105l.002-.501.018-4.989.04-10.161.002-.472c.043-10.392.118-20.785.198-31.177m138.633 0c.058 10.56.111 21.122.142 31.682l.002.474a17308 17308 0 0 1 .04 15.188l.002.502q.022 8.06.07 16.12.048 8.281.059 16.564l.003 2.339.001.465q.007 3.707.039 7.413.03 3.726.022 7.452c-.002 1.346.001 2.691.019 4.037q.025 1.849.006 3.696-.002.669.013 1.338c.072 3.246.072 3.246-.744 4.16-.797.636-1.668 1.051-2.609 1.43-.608.256-1.15.587-1.714.929l-1.209.697-.661.381q-2.268 1.306-4.542 2.6c-1.299.742-2.59 1.495-3.88 2.25a332 332 0 0 1-5.248 3.008c-.954.536-1.903 1.078-2.844 1.635l-.574.336q-.54.318-1.077.642l-.487.285-.425.254c-.494.191-.695.143-1.185-.043a13 13 0 0 1-.735-.381l-.424-.236-.453-.257-.477-.267a182 182 0 0 1-3.505-2.033 227 227 0 0 0-3.28-1.897q-2.254-1.285-4.492-2.597a362 362 0 0 0-5.311-3.042 198 198 0 0 1-3.707-2.144 225 225 0 0 0-3.228-1.866 617 617 0 0 1-6.26-3.626l-1.964-1.143-.66-.384-1.265-.734-.571-.332-.505-.294c-.382-.232-.382-.232-.579-.429a19 19 0 0 1-.035-1.01l-.009-.663-.006-.735-.009-.768c-.025-2.341-.038-4.682-.049-7.023a642 642 0 0 0-.042-5.193 370 370 0 0 1-.024-3.649q-.002-1.09-.019-2.18c-.013-.812-.013-1.623-.011-2.434l-.018-.729c.019-1.59.019-1.59.599-2.207a10 10 0 0 1 1.396-.781q.46-.258.917-.52.476-.258.954-.514a99 99 0 0 0 3.63-2.055 149 149 0 0 1 4.566-2.585 474 474 0 0 0 5.79-3.227 728 728 0 0 1 4.827-2.708 136 136 0 0 0 4.138-2.403c.933-.56.933-.56 1.369-.56l-.008-.642q-.085-7.725-.125-15.452-.018-3.737-.061-7.473a707 707 0 0 1-.047-6.513c-.004-1.15-.011-2.3-.03-3.449a160 160 0 0 1-.019-3.247 53 53 0 0 0-.016-1.19c-.057-2.443-.057-2.443.306-3.388.77-.804 1.528-1.152 2.56-1.575q.639-.359 1.269-.733l1.315-.745a303 303 0 0 0 5.711-3.323 156 156 0 0 1 4.856-2.793c1.104-.607 2.191-1.24 3.274-1.882a227 227 0 0 1 3.279-1.897 468 468 0 0 0 5.043-2.916 561 561 0 0 1 3.568-2.07l1.67-.959a64 64 0 0 0 2.63-1.574c.665-.407.665-.407 1.058-.407" fill="#000"/>
  <path d="M181.437 213.858c2.739 2.386 4.762 5.58 5.12 9.256.043.804.058 1.607.061 2.412l.004.6c-.035 3.582-1.352 7.176-3.823 9.815-3.672 3.561-7.927 4.597-12.929 4.543-3.453-.083-6.426-1.212-9.11-3.389l-.429-.331c-2.694-2.186-4.314-5.636-4.818-9.025-.264-2.591-.068-4.901.718-7.382l.165-.544c1.187-3.396 4.016-6.061 7.121-7.727 5.716-2.748 12.878-2.121 17.92 1.772m-123.274-4.134q2.691-.028 5.382-.041 1.25-.006 2.5-.019 1.212-.013 2.422-.015.457-.002.915-.009c2.718-.037 5.35.313 7.784 1.622l.396.207c2.52 1.359 3.885 3.309 4.814 5.996a16.5 16.5 0 0 1 .644 4.745v.589q0 .953-.007 1.905l-.001 1.329q-.003 1.742-.01 3.483l-.008 3.56q-.006 3.486-.019 6.974H76.28l-.197-3.348-.567.714c-1.596 1.814-3.952 2.777-6.326 3.028-3.983.191-7.713.086-10.904-2.61-1.483-1.416-2.656-3.332-2.769-5.419a38 38 0 0 1 0-.993l.005-.526c.062-2.414.9-4.135 2.647-5.8 3.511-2.952 8.088-2.652 12.388-2.609l1.553.008q1.888.01 3.776.029-.083-.608-.171-1.214l-.096-.683c-.287-1.497-.98-2.762-2.195-3.7-1.801-1.14-3.904-1.217-5.973-1.219l-.81-.01q-1.052-.011-2.105-.015-1.08-.007-2.158-.02c-1.405-.015-2.81-.023-4.215-.032z" fill="#FCFCFC"/>
  <path d="M128.395 146.201c.953.447 1.848.976 2.752 1.515l1.275.753.674.397c1.025.602 2.059 1.19 3.093 1.778a578 578 0 0 1 6.065 3.499q1.568.918 3.144 1.826l.35.201 1.674.962a87 87 0 0 1 3.294 1.981c-.559.605-1.102 1.005-1.824 1.399l-.613.338-.652.356q-.676.372-1.351.747l-.664.367q-1.143.64-2.268 1.31c-2.032 1.206-4.082 2.382-6.129 3.561q-1.352.779-2.702 1.561-.965.556-1.931 1.11-1.08.62-2.144 1.266l-.438.261q-.388.232-.77.473c-.583.344-.859.472-1.527.3a12.5 12.5 0 0 1-1.673-.829l-.609-.354-.649-.383-.683-.398-1.418-.827c-1.094-.639-2.193-1.269-3.29-1.901a962 962 0 0 1-5.475-3.18 620 620 0 0 0-3.165-1.836l-.35-.201-1.673-.962a85 85 0 0 1-3.294-1.981c.491-.55 1.034-.873 1.674-1.234l.669-.378.356-.201q.748-.421 1.494-.845l.773-.438a442 442 0 0 0 3.723-2.134l1.269-.734.633-.365 3.193-1.843 1.264-.729 2.362-1.362 1.413-.815.995-.573.61-.352.536-.308q.52-.304 1.025-.63c.46-.253.46-.253.982-.168" fill="#000"/>
  <path d="m213.535 211.495.525.209c2.735 1.225 4.447 3.54 5.571 6.24.495 1.542.657 3.028.644 4.641v.583q0 .942-.006 1.886l-.002 1.316a990 990 0 0 1-.01 3.447l-.008 3.525q-.006 3.452-.019 6.904-1.425.007-2.849.011l-.971.004-1.391.004-.441.003q-.522-.002-1.043-.022c-.361-.361-.223-.867-.225-1.347v-.501l-.002-.525-.003-1.134-.008-1.798q-.018-2.559-.023-5.116a543 543 0 0 0-.016-3.126q-.004-.595-.003-1.189c.002-2.723-.046-5.259-2.083-7.32-1.911-1.525-4.158-1.583-6.499-1.378-1.99.369-3.576 1.341-4.787 2.966-1.42 2.409-1.436 4.955-1.437 7.66l-.01 1.114q-.012 1.452-.016 2.904-.007 1.487-.02 2.974-.02 2.908-.031 5.816h-6.893v-29.342h6.696l.197 3.348.837-.812c3.729-3.341 9.776-3.761 14.326-1.945m35.052 1.576c-.331 1.144-.865 2.168-1.403 3.225l-.279.553q-.339.672-.681 1.342c-.757 0-1.23-.256-1.92-.566-2.283-1.023-4.35-1.245-6.818-1.268l-.64-.017c-1.825-.014-3.451.348-4.8 1.654-.366.732-.283 1.565-.197 2.363.446.894 1.129 1.233 2.024 1.595 1.682.558 3.442.797 5.188 1.064 2.723.418 5.721.931 7.951 2.658l.492.32c1.476 1.403 2.075 3.15 2.129 5.145-.041 2.413-.717 4.226-2.363 5.982-2.971 2.826-6.953 3.398-10.892 3.372l-.697.004c-3.739-.008-8.71-.712-11.709-3.204.331-1.135.85-2.16 1.378-3.212l.269-.549.26-.52.237-.474c.219-.365.219-.365.613-.562.464.227.913.465 1.366.714 1.766.933 3.585 1.415 5.526 1.846l.483.121c2.38.361 5.39.376 7.505-.884.747-.652 1.033-1.102 1.157-2.092-.103-.824-.308-1.079-.874-1.674-1.832-1.031-3.96-1.281-6.006-1.588-7.629-1.161-7.629-1.161-9.854-4.133-1.277-1.978-1.628-4.219-1.138-6.534.395-1.293.932-2.299 1.835-3.302l.313-.361c4.967-5.365 15.752-4.519 21.545-1.018m-216.419.59c.97.937 1.91 1.963 2.56 3.151v.787c-.421.346-.421.346-1.006.687l-.635.372-.673.381-.663.393c-1.616.932-1.616.932-2.185.9-.52-.255-.72-.708-1.035-1.176-1.154-1.436-3.248-2.259-5.027-2.541-2.613-.201-5.05.241-7.09 1.969-1.661 1.561-2.69 3.62-2.823 5.909-.06 2.741.402 5.332 2.233 7.482 2.24 2.066 4.51 2.554 7.472 2.451 1.887-.124 3.573-.945 4.934-2.254.426-.506.814-1.027 1.181-1.576 1.093.417 2.085.979 3.102 1.551l.58.316q.269.154.55.31l.502.28c.386.3.386.3.556.7.067.962-.967 1.863-1.548 2.554-2.155 2.389-5.49 3.955-8.69 4.179-5.11.229-9.422-.623-13.402-4.031-2.687-2.52-4.377-6.07-4.554-9.762-.041-1.744.054-3.452.455-5.155l.11-.491c.615-2.38 1.929-4.277 3.632-6.008l.322-.372c5.066-5.665 15.463-5.41 21.142-1.006" fill="#FCFCFC"/>
  <path d="m101.104 199.175.759-.014c1.949.003 3.507.418 5.136 1.504-.133 1.098-.483 2.081-.861 3.113l-.182.52-.18.494-.162.449c-.19.347-.19.347-.781.544-.385-.153-.385-.153-.837-.382-1.319-.558-2.676-.58-4.086-.406-1.005.413-1.53.888-2.166 1.772-.591 1.327-.591 1.327-.591 4.333h8.074c-.567 1.132-1.42 1.962-2.292 2.866q-.315.332-.623.671a35 35 0 0 1-.916.97l-.266.306c-1.16 1.146-1.933.7-3.78.7v23.631h-6.892v-23.631H85.73v-5.513h4.727l-.037-1.613c-.019-2.923.601-5.456 2.67-7.618 2.317-2.159 4.886-2.723 8.013-2.696m14.758 5.429v6.498h7.877v5.514h-7.877c.006 2.647.006 2.647.022 5.294q.013 1.62.016 3.242.002 1.308.016 2.616.003.497.002.995c-.013 2.643-.013 2.643 1.125 4.985.884.82 1.889.915 3.04.886l.447-.004c1.122-.034 1.855-.287 2.815-.882.591.197.591.197.821.611l.215.539.237.585.241.616.248.613c.601 1.504.601 1.504.601 1.959q-.471.281-.948.554l-.533.312c-1.71.789-3.345 1.002-5.214.98l-.599.007c-2.654-.01-5.175-.829-7.131-2.667-1.748-1.866-2.348-4.55-2.336-7.045v-.466l.003-1.519.001-1.055.005-2.773.004-2.831q.003-2.777.01-5.552h-5.12c.746-.871 1.479-1.706 2.288-2.511l.314-.315 1.014-1.013.709-.71 1.478-1.477 1.898-1.898 1.46-1.46.7-.701.974-.973.294-.295c.664-.659.664-.659.883-.659" fill="#FDFDFD"/>
  <path d="M56.39 209.723v5.907l-1.993.308c-2.57.441-5.079 1.268-6.753 3.395-.677.989-1.006 2.035-1.297 3.19l-.103.376c-.154.677-.129 1.364-.134 2.055l-.006.501-.016 1.637-.012 1.136q-.016 1.493-.03 2.987l-.032 3.049-.06 5.982h-7.09V209.92h6.696l.197 3.938.849-.911c1.444-1.442 3.093-2.31 5.058-2.83l.451-.123c1.49-.351 2.659-.271 4.275-.271m73.256-10.24h6.892v40.763h-6.892z" fill="#FCFCFC"/>
  <path d="M175.32 217.3c2.141 1.274 3.459 2.981 4.17 5.369.604 2.563.332 5.515-.88 7.852-.281.447-.578.851-.915 1.257l-.313.38c-1.361 1.495-3.32 2.348-5.333 2.443-2.628.047-4.752-.183-6.76-2.035-1.942-1.92-2.79-3.827-2.832-6.562.006-3.035.483-5.152 2.618-7.427.893-.836 1.825-1.349 2.971-1.765l.551-.214c2.12-.605 4.77-.28 6.723.702" fill="#010101"/>
  <path d="M143.824 210.904h6.893q.007 5.695.01 11.39a9321 9321 0 0 0 .008 9.896l.002 2.441.002 2.295.001.844v1.149l.001.651c-.024.479-.024.479-.221.676h-6.696z" fill="#FAFAFA"/>
  <path d="m68.54 227.192.64.002q1.002.006 2.004.018l1.368.008q1.666.01 3.333.029c.052 2.072-.092 4.104-1.446 5.792-1.777 1.706-3.872 2.297-6.283 2.344-1.69-.043-3.321-.297-4.574-1.53-.888-1.028-1.19-1.797-1.163-3.14.126-.848.535-1.427 1.06-2.087l.333-.456c1.371-1.001 3.096-1.005 4.727-.98" fill="#010101"/>
  <path d="M150.126 200.271c.736.67 1.344 1.343 1.425 2.358.055 2.685.055 2.685-.835 3.746-1.348 1.234-2.413 1.461-4.229 1.447-1.267-.124-2.014-.726-2.835-1.656-.886-1.225-1-2.226-.813-3.729.425-1.113 1.195-1.9 2.167-2.56 1.765-.699 3.481-.564 5.12.394" fill="#FBFBFB"/>
  <defs>
    <linearGradient id="a" x1="207.754" y1="15.36" x2="48.443" y2="183.927" gradientUnits="userSpaceOnUse">
      <stop stop-color="#C471F5"/>
      <stop offset="1" stop-color="#FA71CD"/>
    </linearGradient>
  </defs>
</svg>
