<svg width="256" height="256" viewBox="0 0 256 256" fill="none" xmlns="http://www.w3.org/2000/svg"><path fill-rule="evenodd" clip-rule="evenodd" d="M50.664 16.29c-.734-.436-1.307-.65-2.15-.93v134.498l26.24 15.138.64.37 1.28.738.308.178a378 378 0 0 1 2.958 1.713l1.426.834.377.22.31.181.654.387.61.356c.672.395 1.237.693 2.021.759l.002-.002a145 145 0 0 1 2.98-1.83c.755-.443 1.521-.867 3.054-1.716l.721-.403.708-.398.668-.372c.5-.279.994-.54 1.519-.769.19-.025.294-.04.395-.024.125.02.243.086.507.234l.572.357.636.389q.609.377 1.228.739l.573.329.591.341.616.355q2.418 1.397 4.843 2.78a588 588 0 0 1 5.815 3.35 854 854 0 0 0 4.898 2.843 588 588 0 0 1 3.775 2.186 691 691 0 0 0 5.405 3.141l.605.347.574.332.536.305c.243.14.36.207.479.269.111.058.224.111.442.214l.033.01c.513.156.808.246 1.318.034a26 26 0 0 1 1.689-1.122l.514-.299.544-.318.579-.336a648 648 0 0 1 5.366-3.089c1.72-.981 3.436-1.967 5.145-2.967q3.076-1.797 6.164-3.574l2.576-1.485 1.278-.737.314-.181.005-.003a433 433 0 0 0 4.373-2.541l.686-.402.655-.387.611-.356c.271-.163.401-.242.535-.315.125-.066.253-.127.498-.245l.002-.001h.001c.529-.161.833-.25 1.359-.068l.36.222.423.252q.465.29.937.572l.513.307q1.576.951 3.169 1.874l.685.398.665.39.631.367.559.327.216.114c.608.321 1.214.642 1.907.454l.358-.224.42-.254q.464-.297.934-.583l.515-.313a110 110 0 0 1 3.04-1.794 368 368 0 0 0 4.467-2.591 342 342 0 0 1 5.083-2.94q2.234-1.273 4.461-2.557l.633-.366.593-.342 1.943-1.122 1.9-1.098.635-.367a709 709 0 0 1 3.672-2.109l.37-.211.076-.043 1.384-.788.51-.289.81-.461q.632-.382 1.277-.739c.876-.3 1.64-.57 2.314-1.213.62-.915.62-.915.565-4.857a99 99 0 0 1-.008-2.043q.012-1.791-.002-3.584a533 533 0 0 1-.019-5.367q.006-4.515-.017-9.029a2244 2244 0 0 1-.03-8.986l-.001-.564-.002-2.834q-.008-10.037-.045-20.073a9787 9787 0 0 1-.054-19.538l-.001-.608-.01-6.055q-.009-6.174-.021-12.347l-.001-.574c-.024-12.8-.065-25.601-.108-38.402-.054 0-.093 0-.131.006-.102.014-.2.067-.557.263l-.666.384-1.168.672-.432.25-1.871 1.084-1.029.598h-.001l-.002.001a157 157 0 0 1-4.156 2.363c-.731.392-1.456.786-2.164 1.218-1.491.93-3.002 1.815-4.531 2.684a440 440 0 0 0-3.09 1.772l-.39.226q-1.295.755-2.596 1.499c-1.072.61-2.14 1.223-3.202 1.85a310 310 0 0 1-4.217 2.447 559 559 0 0 0-4.721 2.718 163 163 0 0 1-4.431 2.522c-.73.392-1.455.786-2.163 1.217a143 143 0 0 1-5.051 2.982l-1.601.91-.505.287q-.507.285-1.012.577l-.163.1c-.823.505-1.627.998-2.547 1.313-1.386.427-2.58.934-3.668 1.913-.279.393-.491.69-.647 1.014-.489 1.008-.451 2.272-.293 7.47.035 1.13.049 2.26.054 3.392q.012 3.207.08 6.415c.08 3.871.126 7.743.16 11.615.011 1.362.026 2.724.055 4.085q.03 1.29.047 2.58.007.599.017 1.198v.024c.017.549.034 1.097.039 1.645l.004.504c.029.634-.01 1.017-.165 1.655-.371.335-.737.56-1.179.793l-.397.191-.595.352-.561.321-.632.364-.028.016h-.002c-1.552.89-3.105 1.781-4.646 2.691q-2.025 1.198-4.071 2.36a228 228 0 0 0-3.319 1.919 291 291 0 0 1-3.904 2.272l-.617.351-.595.342-.56.318q-.468.268-.95.51c-.489.188-.682.237-1.175.049l-.414-.246-.477-.279q-.532-.32-1.066-.634l-.576-.338q-1.226-.727-2.46-1.437a933 933 0 0 1-6.299-3.65 446 446 0 0 0-4.456-2.573l-.134-.076c-.78-.443-1.56-.886-2.332-1.343l-.475-.284-.899-.537-.405-.247-.382-.228a6.2 6.2 0 0 0-1.316-.595l-.567-.185c.105-5.074.188-10.148.237-15.223.024-2.469.05-4.937.103-7.405.047-2.167.086-4.333.101-6.5l.001-.339c.005-1.033.01-2.067.037-3.1.015-.502.042-1.023.069-1.554.12-2.35.251-4.912-.548-7.036-.805-1.302-2.181-1.908-3.572-2.4-.707-.213-1.334-.42-1.97-.795a30 30 0 0 0-1.16-.704l-1.195-.689-.656-.378-3.215-1.853-1.278-.738-.64-.37-28.16-16.246-1.28-.738-.278-.16-2.929-1.69-.648-.372-1.29-.744a390 390 0 0 1-3.2-1.856l-.666-.393-1.279-.754-.593-.354zm9.108 17.347-1.018-.554c-.08 10.392-.155 20.784-.198 31.177l-.002.471a16390 16390 0 0 0-.058 15.15l-.002.502q-.03 8.052-.097 16.104a2626 2626 0 0 0-.09 18.924l-.002.466q-.008 3.705-.051 7.41a542 542 0 0 0-.038 7.488l.001.357c.004 1.102.007 2.204-.012 3.305a84 84 0 0 1-.064 1.877c-.108 2.621-.226 5.448.613 7.833.784 1.357 2.136 1.979 3.574 2.444.716.188 1.33.368 1.968.746q.57.37 1.16.709l1.195.689.655.377 2.575 1.485 1.92 1.107 2.552 1.474.095.055.002.001 2.433 1.404.11.063q1.298.746 2.592 1.498l1.528.885.742.429.712.416.664.383q.552.32 1.123.604c.595.197.85.255 1.428.006l.455-.302.52-.334q.547-.351 1.107-.682l.576-.33.6-.346 1.304-.75 1.043-.601 2.968-1.711 1.272-.734 7.681-4.431.64-.369 1.28-.739.245-.142.037-.021.03-.017 2.916-1.682 1.342-.772.66-.381a387 387 0 0 0 4.136-2.412 167 167 0 0 1 4.221-2.4l.628-.346.603-.334.532-.294.6-.356a9.6 9.6 0 0 0 1.385-.776c.591-.618.591-.618.617-2.208l-.016-.726c.005-.81.009-1.619-.002-2.429q-.014-1.087-.013-2.176.001-1.821-.017-3.644a462 462 0 0 1-.025-4.243q0-2.278-.013-4.555l-.005-1.305q0-1.045-.012-2.089l-.009-.768v-.731l-.011-.665-.004-.579c-.102-.478-.102-.478-.47-.82l-.42-.249-.521-.312-.596-.338-.672-.382q-.926-.524-1.851-1.05l-.382-.217q-1.65-.94-3.288-1.898a567 567 0 0 0-5.289-3.063l-.349-.198-2.806-1.6-2.11-1.203-.696-.397-.176-.1-.001-.001h-.001c-1.073-.612-2.146-1.224-3.211-1.85l-.674-.397-1.279-.754-.588-.351-.549-.324a8 8 0 0 0-1.576-.743l-.56-.182q.053-7.656.079-15.312c.008-2.48.016-4.962.034-7.443q.025-3.27.034-6.538v-.328c.002-1.042.003-2.084.012-3.125a316 316 0 0 0 .02-4.52v-.01c.008-.563.017-1.125.014-1.688l-.004-.512c.013-.45.01-.873-.045-1.32-.082-.206-.136-.34-.219-.451-.151-.204-.401-.335-1.107-.705l-.394-.19-.567-.335-.527-.303-.604-.348-2.371-1.363q-1.49-.857-2.979-1.716l-.057-.034-3.803-2.193-.904-.52c-1.625-.935-3.25-1.87-4.864-2.824a220 220 0 0 0-4.21-2.425 280 280 0 0 1-4.123-2.361 382 382 0 0 0-4.79-2.771l-.588-.332q-1.335-.758-2.68-1.497zm137.616-.554c.057 10.56.11 21.12.141 31.682l.002.473a17308 17308 0 0 1 .04 15.188l.002.502q.022 8.06.07 16.12.048 8.282.059 16.564l.003 2.34.001.465q.007 3.706.039 7.412.03 3.726.023 7.452c-.003 1.346 0 2.692.019 4.038q.023 1.847.005 3.696-.002.668.014 1.337c.072 3.246.072 3.246-.745 4.161-.797.635-1.668 1.051-2.609 1.429-.6.253-1.137.579-1.693.917l-.021.013-1.209.697-.661.381a1132 1132 0 0 1-4.542 2.6c-1.298.741-2.59 1.494-3.88 2.249a325 325 0 0 1-5.248 3.009 140 140 0 0 0-2.844 1.634l-.574.337q-.54.318-1.077.642l-.487.285-.425.253c-.494.192-.695.144-1.185-.043a13 13 0 0 1-.735-.38l-.424-.237-.453-.257-.477-.267a188 188 0 0 1-3.505-2.032 210 210 0 0 0-3.28-1.897 436 436 0 0 1-4.492-2.597 348 348 0 0 0-5.311-3.042 195 195 0 0 1-3.706-2.144 231 231 0 0 0-3.229-1.867 617 617 0 0 1-6.26-3.625l-1.963-1.143-.661-.384-.487-.283-.553-.321-.225-.131-.571-.332-.505-.294c-.234-.142-.325-.197-.405-.264a3 3 0 0 1-.173-.164 18 18 0 0 1-.036-1.01l-.009-.664-.006-.734-.009-.769c-.025-2.34-.038-4.682-.048-7.023a691 691 0 0 0-.043-5.192 370 370 0 0 1-.024-3.65q-.002-1.09-.019-2.18a132 132 0 0 1-.011-2.434l-.018-.728c.012-1.012.017-1.38.168-1.673.086-.167.22-.31.431-.534a10 10 0 0 1 1.396-.782q.46-.257.917-.52l.954-.513a100 100 0 0 0 3.63-2.056 147 147 0 0 1 4.567-2.584 496 496 0 0 0 5.789-3.227 738 738 0 0 1 4.827-2.708 140 140 0 0 0 4.139-2.404c.932-.56.932-.56 1.368-.56l-.007-.641q-.085-7.726-.126-15.453a1163 1163 0 0 0-.06-7.473 707 707 0 0 1-.048-6.513 264 264 0 0 0-.03-3.449 167 167 0 0 1-.019-3.246 59 59 0 0 0-.015-1.191c-.041-1.712-.053-2.224.068-2.703.052-.204.128-.402.237-.684.77-.805 1.528-1.153 2.56-1.576q.639-.358 1.269-.732l1.315-.745a304 304 0 0 0 5.711-3.323 157 157 0 0 1 4.856-2.794c1.105-.606 2.191-1.24 3.274-1.882a228 228 0 0 1 3.279-1.896 504 504 0 0 0 5.043-2.916q1.606-.94 3.22-1.869l.348-.2 1.671-.96a64 64 0 0 0 2.629-1.575c.435-.266.585-.358.747-.39.086-.016.175-.016.312-.016m-66.24 114.633c-.904-.54-1.799-1.068-2.753-1.515-.261-.043-.392-.064-.515-.042-.122.021-.237.084-.466.21q-.506.326-1.025.629l-.536.309-.61.352-.996.573-1.412.814-2.362 1.363-1.264.729-.302.174-2.892 1.669-.632.365-1.269.733q-1.857 1.076-3.723 2.135l-.773.438q-.747.424-1.495.845l-.356.2-.668.379c-.64.361-1.183.684-1.675 1.234a87 87 0 0 0 3.294 1.981l1.674.962.349.201q1.586.913 3.166 1.836 2.733 1.598 5.474 3.18l.452.26c.947.545 1.894 1.089 2.838 1.641l1.418.827.683.398.65.382.609.354c.551.323 1.08.591 1.673.83.667.172.943.044 1.527-.3q.381-.242.769-.473l.438-.261q1.065-.647 2.145-1.266.967-.554 1.93-1.111l2.703-1.56.617-.356c1.842-1.06 3.684-2.12 5.511-3.205a95 95 0 0 1 2.269-1.31l.664-.368 1.351-.747.652-.355.613-.338c.721-.395 1.264-.794 1.824-1.399a88 88 0 0 0-3.294-1.981l-1.675-.962-.35-.201a547 547 0 0 1-3.144-1.826 561 561 0 0 0-6.064-3.499l-.107-.061c-.998-.568-1.996-1.136-2.987-1.717l-.673-.397-.671-.396z" fill="url(#a)"/><path d="m213.535 211.495.525.209c2.735 1.225 4.447 3.54 5.571 6.24.495 1.542.657 3.028.644 4.641v.583q0 .942-.006 1.886l-.002 1.316a990 990 0 0 1-.01 3.447l-.008 3.525q-.006 3.452-.019 6.904-1.425.007-2.849.011l-.971.004-1.391.004-.441.003q-.522-.002-1.043-.022c-.361-.361-.223-.867-.225-1.347v-.501l-.002-.525-.003-1.134-.008-1.798q-.018-2.559-.023-5.116a543 543 0 0 0-.016-3.126q-.004-.595-.003-1.189c.002-2.723-.046-5.259-2.083-7.32-1.911-1.525-4.158-1.583-6.499-1.378-1.99.369-3.576 1.341-4.787 2.966-1.42 2.409-1.436 4.955-1.437 7.66l-.01 1.114q-.012 1.452-.016 2.904-.007 1.487-.02 2.974-.02 2.908-.031 5.816h-6.893v-29.342h6.696l.197 3.348.837-.812c3.729-3.341 9.776-3.761 14.326-1.945m35.052 1.576c-.331 1.144-.865 2.168-1.403 3.225l-.279.553q-.339.672-.681 1.342c-.757 0-1.23-.256-1.92-.566-2.283-1.023-4.35-1.245-6.818-1.268l-.64-.017c-1.825-.014-3.451.348-4.8 1.654-.366.732-.283 1.565-.197 2.363.446.894 1.129 1.233 2.024 1.595 1.682.558 3.442.797 5.188 1.064 2.723.418 5.721.931 7.951 2.658l.492.32c1.476 1.403 2.075 3.15 2.129 5.145-.041 2.413-.717 4.226-2.363 5.982-2.971 2.826-6.953 3.398-10.892 3.372l-.697.004c-3.739-.008-8.71-.712-11.709-3.204.331-1.135.85-2.16 1.378-3.212l.269-.549.26-.52.237-.474c.219-.365.219-.365.613-.562.464.227.913.465 1.366.714 1.766.933 3.585 1.415 5.526 1.846l.483.121c2.38.361 5.39.376 7.505-.884.747-.652 1.033-1.102 1.157-2.092-.103-.824-.308-1.079-.874-1.674-1.832-1.031-3.96-1.281-6.006-1.588-7.629-1.161-7.629-1.161-9.854-4.133-1.277-1.978-1.628-4.219-1.138-6.534.395-1.293.932-2.299 1.835-3.302l.313-.361c4.967-5.365 15.752-4.519 21.545-1.018m-216.419.59c.97.937 1.91 1.963 2.56 3.151v.787c-.421.346-.421.346-1.006.687l-.635.372-.673.381-.663.393c-1.616.932-1.616.932-2.185.9-.52-.255-.72-.708-1.035-1.176-1.154-1.436-3.248-2.259-5.027-2.541-2.613-.201-5.05.241-7.09 1.969-1.661 1.561-2.69 3.62-2.823 5.909-.06 2.741.402 5.332 2.233 7.482 2.24 2.066 4.51 2.554 7.472 2.451 1.887-.124 3.573-.945 4.934-2.254.426-.506.814-1.027 1.181-1.576 1.093.417 2.085.979 3.102 1.551l.58.316q.269.154.55.31l.502.28c.386.3.386.3.556.7.067.962-.967 1.863-1.548 2.554-2.155 2.389-5.49 3.955-8.69 4.179-5.11.229-9.422-.623-13.402-4.031-2.687-2.52-4.377-6.07-4.554-9.762-.041-1.744.054-3.452.455-5.155l.11-.491c.615-2.38 1.929-4.277 3.632-6.008l.322-.372c5.066-5.665 15.463-5.41 21.142-1.006m68.936-14.486.759-.014c1.949.003 3.507.418 5.136 1.504-.133 1.098-.483 2.081-.861 3.113l-.182.52-.18.494-.162.449c-.19.347-.19.347-.781.544-.385-.153-.385-.153-.837-.382-1.319-.558-2.676-.58-4.086-.406-1.005.413-1.53.888-2.166 1.772-.591 1.327-.591 1.327-.591 4.333h8.074c-.567 1.132-1.42 1.962-2.292 2.866q-.315.332-.623.671a35 35 0 0 1-.916.97l-.266.306c-1.16 1.146-1.933.7-3.78.7v23.631h-6.892v-23.631H85.73v-5.513h4.727l-.037-1.613c-.019-2.923.601-5.456 2.67-7.618 2.317-2.159 4.886-2.723 8.013-2.696m14.758 5.429v6.498h7.877v5.514h-7.877c.006 2.647.006 2.647.022 5.294q.013 1.62.016 3.242.002 1.308.016 2.616.003.497.002.995c-.013 2.643-.013 2.643 1.125 4.985.884.82 1.889.915 3.04.886l.447-.004c1.122-.034 1.855-.287 2.815-.882.591.197.591.197.821.611l.215.539.237.585.241.616.248.613c.601 1.504.601 1.504.601 1.959q-.471.281-.948.554l-.533.312c-1.71.789-3.345 1.002-5.214.98l-.599.007c-2.654-.01-5.175-.829-7.131-2.667-1.748-1.866-2.348-4.55-2.336-7.045v-.466l.003-1.519.001-1.055.005-2.773.004-2.831q.003-2.777.01-5.552h-5.12c.746-.871 1.479-1.706 2.288-2.511l.314-.315 1.014-1.013.709-.71 1.478-1.477 1.898-1.898 1.46-1.46.7-.701.974-.973.294-.295c.664-.659.664-.659.883-.659m-59.471 5.119v5.907l-1.993.308c-2.57.441-5.079 1.268-6.753 3.395-.677.989-1.006 2.035-1.297 3.19l-.103.376c-.154.677-.129 1.364-.134 2.055l-.006.501-.016 1.637-.012 1.136q-.016 1.493-.03 2.987l-.032 3.049-.06 5.982h-7.09V209.92h6.696l.197 3.938.849-.911c1.444-1.442 3.093-2.31 5.058-2.83l.451-.123c1.49-.351 2.659-.271 4.275-.271m73.256-10.24h6.892v40.763h-6.892z" fill="currentColor"/><path fill-rule="evenodd" clip-rule="evenodd" d="M186.556 223.114c-.358-3.676-2.381-6.87-5.12-9.256-5.042-3.893-12.204-4.52-17.92-1.772-3.105 1.666-5.934 4.331-7.121 7.727l-.165.544c-.786 2.481-.982 4.791-.718 7.382.504 3.389 2.124 6.839 4.818 9.025l.429.331c2.684 2.177 5.657 3.306 9.11 3.389 5.002.054 9.257-.982 12.929-4.543 2.471-2.639 3.788-6.233 3.823-9.815l-.004-.6a47 47 0 0 0-.061-2.412m-7.067-.445c-.71-2.388-2.029-4.095-4.17-5.369-1.953-.982-4.602-1.307-6.723-.702l-.551.214c-1.145.415-2.078.929-2.971 1.765-2.135 2.275-2.612 4.392-2.618 7.427.043 2.734.89 4.642 2.832 6.562 2.008 1.852 4.132 2.082 6.76 2.035 2.013-.095 3.973-.948 5.333-2.443l.313-.38c.337-.406.635-.81.915-1.257 1.212-2.337 1.485-5.289.88-7.852" fill="currentColor"/><path d="M143.824 210.904h6.893q.007 5.695.01 11.39a9321 9321 0 0 0 .008 9.896l.002 2.441.002 2.295.001.844v1.149l.001.651c-.024.479-.024.479-.221.676h-6.696z" fill="currentColor"/><path fill-rule="evenodd" clip-rule="evenodd" d="M63.545 209.682q-2.691.013-5.382.041v5.907l.19.001q2.012.01 4.025.031l.147.001q1.005.012 2.011.019a295 295 0 0 1 2.915.025c2.069.002 4.172.079 5.973 1.219 1.215.938 1.908 2.203 2.195 3.7l.096.683q.087.606.17 1.214a679 679 0 0 0-3.775-.029l-1.553-.008-.937-.012c-4.02-.058-8.194-.117-11.451 2.621-1.746 1.665-2.585 3.386-2.647 5.8l-.005.526a38 38 0 0 0 0 .993c.113 2.087 1.286 4.003 2.769 5.419 3.19 2.696 6.921 2.801 10.904 2.61 2.374-.251 4.73-1.214 6.326-3.028l.567-.714.197 3.348h6.695q.012-3.487.02-6.974v-.283q.001-1.639.007-3.277a1394 1394 0 0 0 .011-4.812q.007-.952.007-1.905v-.589a16.4 16.4 0 0 0-.644-4.745c-.929-2.687-2.294-4.637-4.814-5.996l-.396-.207c-2.435-1.309-5.066-1.659-7.784-1.622q-.458.007-.915.009-1.21.002-2.421.015-1.25.013-2.5.019m5.635 17.511-.64-.002c-1.632-.025-3.356-.02-4.728.981l-.332.455c-.526.661-.935 1.239-1.061 2.088-.026 1.343.275 2.111 1.164 3.14 1.252 1.232 2.883 1.486 4.574 1.529 2.41-.046 4.505-.638 6.283-2.344 1.354-1.688 1.497-3.719 1.446-5.791a529 529 0 0 0-3.334-.029l-1.368-.008q-1.002-.012-2.004-.019" fill="currentColor"/><path d="M150.126 200.271c.736.67 1.344 1.343 1.425 2.358.055 2.685.055 2.685-.835 3.746-1.348 1.234-2.413 1.461-4.229 1.447-1.267-.124-2.014-.726-2.835-1.656-.886-1.225-1-2.226-.813-3.729.425-1.113 1.195-1.9 2.167-2.56 1.765-.699 3.481-.564 5.12.394" fill="currentColor"/><defs><linearGradient id="a" x1="207.754" y1="15.359" x2="48.443" y2="183.926" gradientUnits="userSpaceOnUse"><stop stop-color="#C471F5"/><stop offset="1" stop-color="#FA71CD"/></linearGradient></defs></svg>
