<svg viewBox="0 0 1000 847" xmlns="http://www.w3.org/2000/svg" xml:space="preserve" style="fill-rule:evenodd;clip-rule:evenodd;stroke-linejoin:round;stroke-miterlimit:2"><path d="M1049.75 169.77c1.17-.63 2.49-.95 3.95-.95 1.27 0 2.45.29 3.54.86s2.02 1.46 2.78 2.66l4.57-2.66c-.98-1.93-2.42-3.4-4.3-4.4q-2.835-1.5-6.54-1.5c-2.66 0-5.03.56-7.11 1.66-2.08 1.11-3.7 2.64-4.87 4.59s-1.76 4.19-1.76 6.73.59 4.74 1.76 6.7c1.17 1.97 2.8 3.51 4.87 4.64 2.08 1.12 4.45 1.69 7.11 1.69 2.47 0 4.65-.51 6.54-1.55 1.89-1.03 3.32-2.5 4.3-4.4l-4.57-2.66c-.76 1.21-1.69 2.09-2.78 2.66s-2.28.86-3.54.86c-1.46 0-2.77-.32-3.95-.95-1.17-.63-2.09-1.55-2.76-2.73s-1-2.61-1-4.26.33-3.07 1-4.26 1.58-2.1 2.76-2.73m69.04-5.51h7.18l-4.77 4.76h-2.21v20.45h-5.95v-20.45h-4.19v-4.76h4.19v-1.63c0-2.65.78-4.79 2.36-6.4 1.56-1.6 3.8-2.39 6.72-2.39 1.06 0 2.04.11 2.98.32.94.23 1.72.58 2.36 1.06l-1.63 4.46c-.44-.35-.95-.61-1.52-.78-.57-.18-1.15-.26-1.76-.26-1.23 0-2.16.34-2.81 1.01-.63.69-.95 1.72-.95 3.07z" style="fill:currentColor;fill-rule:nonzero" transform="matrix(4.72934 0 0 4.72925 -4918.52 -51.562)"/><path d="M1147.88 189.78h-9.97q-4.185 0-6.48-2.16c-1.52-1.44-2.28-3.58-2.28-6.4v-12.21h-4.62l10.57-10.57v5.81h6.8V169h-6.8v12.07c0 1.21.31 2.13.92 2.8.62.66 1.49 1 2.6 1h4.37l4.89 4.89zm5.15-35.61v35.28l-5.94-5.94v-29.34zm9.37 0c-1.11 0-2.02.34-2.74 1.02-.71.68-1.07 1.53-1.07 2.54s.36 1.82 1.07 2.52 1.63 1.05 2.74 1.05 2.06-.36 2.76-1.07q1.05-1.065 1.05-2.64c0-.98-.36-1.8-1.07-2.45s-1.63-.98-2.73-.98z" style="fill:currentColor;fill-rule:nonzero" transform="matrix(4.72934 0 0 4.72925 -4918.52 -51.562)"/><path style="fill:currentColor" d="M1159.4 164.06h5.94v25.39h-5.94z" transform="matrix(4.72934 0 0 4.72925 -4918.52 -51.562)"/><path d="M1190.14 165.44c-2.04-1.11-4.38-1.66-7.01-1.66s-4.91.56-6.94 1.66q-3.045 1.665-4.8 4.59c-1.17 1.95-1.76 4.19-1.76 6.73s.59 4.74 1.76 6.7 2.77 3.51 4.8 4.64 4.34 1.69 6.94 1.69 4.97-.56 7.01-1.69c2.04-1.12 3.64-2.67 4.8-4.64s1.74-4.2 1.74-6.7-.58-4.82-1.74-6.75q-1.74-2.895-4.8-4.56zm-.43 15.55c-.65 1.21-1.54 2.12-2.69 2.76-1.14.64-2.44.95-3.9.95s-2.7-.32-3.83-.95c-1.12-.63-2.02-1.55-2.69-2.76-.67-1.2-1-2.62-1-4.23s.33-3.07 1-4.26 1.56-2.1 2.69-2.73c1.12-.63 2.42-.95 3.88-.95s2.71.32 3.85.95 2.04 1.55 2.69 2.73c.65 1.19.98 2.61.98 4.26s-.33 3.03-.98 4.23m31.1-16.03c-1.6-.79-3.42-1.19-5.44-1.19-2.22 0-4.18.44-5.87 1.31a9.2 9.2 0 0 0-2.88 2.3v-3.32h-5.66v25.39h5.94v-12.84c0-1.71.29-3.13.88-4.26.59-1.12 1.42-1.97 2.5-2.54s2.31-.86 3.71-.86c1.9 0 3.38.55 4.45 1.66q1.59 1.665 1.59 5.04v13.79h5.94v-14.55q0-3.855-1.38-6.3c-.92-1.63-2.18-2.85-3.78-3.64zm29.79 13.51a5.85 5.85 0 0 0-2.26-2.07c-.94-.49-1.96-.88-3.07-1.17s-2.23-.5-3.35-.64c-1.13-.14-2.15-.33-3.07-.55s-1.66-.52-2.23-.9-.86-.95-.86-1.71c0-.82.44-1.51 1.31-2.04q1.305-.81 4.02-.81c1.2 0 2.42.13 3.64.4s2.43.77 3.64 1.5l2.28-4.52c-1.14-.7-2.58-1.24-4.33-1.62-1.74-.38-3.47-.57-5.18-.57-2.28 0-4.26.33-5.92.98s-2.96 1.57-3.88 2.76-1.38 2.59-1.38 4.21c0 1.46.29 2.63.86 3.52s1.32 1.59 2.23 2.12c.92.52 1.94.92 3.07 1.19s2.25.48 3.38.64c1.12.16 2.15.33 3.07.52s1.66.47 2.23.83.86.9.86 1.59q0 1.29-1.26 2.04c-.84.51-2.2.76-4.07.76-1.58 0-3.17-.24-4.75-.71s-2.95-1.08-4.09-1.81l-2.28 4.52c1.14.79 2.69 1.47 4.64 2.02s3.99.83 6.11.83c2.38 0 4.42-.33 6.13-.97 1.71-.65 3.04-1.56 3.97-2.73s1.4-2.55 1.4-4.14c0-1.43-.29-2.58-.86-3.47m-147.3-12.78c-2.08-1.83-5.02-2.73-8.81-2.73h-1.05l-5.11 5.11h5.43c.43 0 .85.02 1.24.06 1.58.15 2.8.63 3.66 1.43 1.09 1 1.62 2.39 1.62 4.19v.4h-6.76c-2.66 0-4.77.34-6.38 1.03-1.6.69-2.75 1.63-3.45 2.79-.71 1.18-1.06 2.5-1.06 3.97s.4 2.85 1.2 4.05c.82 1.2 1.95 2.13 3.42 2.79 1.47.67 3.18 1.01 5.14 1.01 2.33 0 4.25-.43 5.77-1.27 1.06-.6 1.87-1.36 2.47-2.28v3.2h5.8V174.1c0-3.79-1.04-6.59-3.11-8.41zm-3.02 13.83c0 1.9-.89 3.79-2.54 4.74 0 .02-.02.02-.03.03-1.2.69-2.55 1.03-4.05 1.03s-2.79-.32-3.67-.98c-.89-.66-1.33-1.53-1.33-2.65 0-.98.37-1.79 1.09-2.47s2.12-1.02 4.22-1.02h6.32v1.32zm-11.89-16.56-5.16 5.16c-3.49.23-5.66 1.18-6.96 2.57-.15.14-.3.29-.43.46-.32.4-.6.84-.83 1.35v.02c-.55 1.14-.81 2.56-.81 4.23v12.7h-6.14v-26.2h5.84v3.85c.75-1.17 1.77-2.09 3.02-2.77q2.535-1.38 6.3-1.38h5.17z" style="fill:currentColor;fill-rule:nonzero" transform="matrix(4.72934 0 0 4.72925 -4918.52 -51.562)"/><path d="m189.39 45.12-17.06 9.85v68.92l-17.06 9.89-21.45 12.41-21.45-12.37-17.06-9.85V55.01l-17.06-9.85L0 0v226.5l8.53 4.9L44.18 252l17.06 9.81L78.26 252l17.06 9.81 17.06 9.85 4.35 2.52 17.06 9.89 17.06-9.89 4.39-2.52 34.12-19.7 17.02 9.85h.04l17.02-9.85 35.61-20.51 8.53-4.9V0l-78.17 45.12zM61.2 242.15l-44.14-25.5V29.55l61.2 35.31v69l34.12 19.62 12.88 7.42v44.22l-12.88 7.46-51.18 29.55zm94.03 9.81-17.06 9.85-4.39 2.52-4.35-2.52-17.06-9.85-6.91-4.01-10.15-5.84 17.06-9.85 12.88-7.42 8.57-4.95 8.49 4.9 12.96 7.46 17.06 9.85-17.1 9.85zm95.28-35.27-44.1 25.42-17.02-9.85-17.06-9.81-17.06-9.85-12.96-7.51v-44.14l12.96-7.46 17.06-9.55 17.06-9.6V64.83l61.11-35.27v187.13z" style="fill:url(#a);fill-rule:nonzero" transform="matrix(2.24236 0 0 2.24232 200.043 0)"/><defs><linearGradient id="a" x1="0" y1="0" x2="1" y2="0" gradientUnits="userSpaceOnUse" gradientTransform="rotate(135 126.947 49.748)scale(327.3)"><stop offset="0" style="stop-color:#6a4bfe;stop-opacity:1"/><stop offset="1" style="stop-color:#02fffe;stop-opacity:1"/></linearGradient></defs></svg>